<?xml version="1.0" standalone="no"?>
<!DOCTYPE svg PUBLIC "-//W3C//DTD SVG 20010904//EN"
 "http://www.w3.org/TR/2001/REC-SVG-20010904/DTD/svg10.dtd">
<svg version="1.0" xmlns="http://www.w3.org/2000/svg"
 width="400.000000pt" height="400.000000pt" viewBox="0 0 400.000000 400.000000"
 preserveAspectRatio="xMidYMid meet">

<g transform="translate(0.000000,400.000000) scale(0.100000,-0.100000)"
fill="#000000" stroke="none">
<path d="M1760 3985 c-373 -46 -729 -197 -1020 -432 -89 -72 -257 -243 -321
-328 -375 -490 -508 -1122 -360 -1707 69 -270 191 -522 360 -743 64 -85 232
-256 321 -328 604 -488 1431 -584 2128 -247 203 98 353 203 516 360 302 291
465 583 578 1035 33 129 33 132 33 370 0 261 -8 335 -57 529 -85 338 -248 632
-493 885 -122 126 -220 208 -345 291 -393 258 -878 372 -1340 315z m-468 -387
c115 -53 173 -149 172 -283 -1 -164 -112 -352 -279 -470 -131 -93 -238 -129
-380 -130 -90 0 -107 3 -163 29 -177 82 -221 276 -112 494 88 176 289 334 481
377 93 21 213 14 281 -17z m1321 -948 c87 -27 173 -92 225 -170 59 -87 75
-151 70 -269 -3 -82 -8 -105 -36 -162 -43 -89 -114 -159 -209 -206 -75 -37
-80 -38 -182 -38 -87 1 -117 5 -164 24 -285 113 -368 479 -159 703 116 124
289 169 455 118z m-783 -704 c0 -28 99 -163 166 -226 78 -74 194 -139 294
-166 87 -23 253 -23 340 0 136 37 285 133 366 237 33 42 54 59 70 59 66 0 476
-121 747 -220 l89 -33 -7 -36 c-14 -78 -96 -302 -150 -411 -149 -301 -380
-566 -650 -747 -263 -177 -546 -284 -854 -324 -117 -15 -392 -12 -518 6 -636
89 -1198 500 -1479 1083 -52 109 -125 310 -139 382 -6 35 -6 36 47 58 89 36
306 109 437 147 68 19 126 37 130 39 14 8 323 76 431 95 159 27 260 40 435 55
207 19 245 19 245 2z"/>
<path d="M2362 2551 c-76 -26 -140 -85 -182 -166 -32 -61 -35 -76 -35 -149 0
-72 4 -89 33 -148 37 -76 82 -120 162 -157 46 -22 69 -26 140 -26 73 0 93 4
141 28 63 30 125 92 161 159 20 37 23 58 23 143 0 89 -3 105 -27 151 -35 67
-115 138 -184 163 -68 26 -160 27 -232 2z m244 -36 c150 -67 221 -251 154
-403 -28 -66 -112 -144 -176 -166 -152 -51 -312 14 -386 157 -31 61 -36 170
-12 238 34 95 130 179 225 199 60 12 134 3 195 -25z"/>
</g>
</svg>
